<?xml version="1.0" standalone="no"?>
<!DOCTYPE svg PUBLIC "-//W3C//DTD SVG 20010904//EN"
 "http://www.w3.org/TR/2001/REC-SVG-20010904/DTD/svg10.dtd">
<svg version="1.0" xmlns="http://www.w3.org/2000/svg"
 width="512.000000pt" height="512.000000pt" viewBox="0 0 512.000000 512.000000"
 preserveAspectRatio="xMidYMid meet">
<metadata>
Created by potrace 1.11, written by Peter Selinger 2001-2013
</metadata>
<g transform="translate(0.000000,512.000000) scale(0.100000,-0.100000)"
fill="#000000" stroke="none">
<path d="M2428 4995 c-2 -2 -39 -5 -83 -9 -44 -3 -89 -7 -100 -10 -11 -2 -42
-7 -68 -10 -277 -41 -575 -147 -844 -302 -523 -302 -938 -829 -1108 -1410 -33
-111 -30 -99 -54 -221 -20 -99 -23 -120 -38 -263 -14 -126 -7 -411 11 -530 2
-14 8 -47 12 -75 4 -27 8 -54 9 -60 2 -5 8 -37 15 -70 44 -213 149 -481 274
-698 48 -83 175 -270 195 -287 3 -3 24 -27 45 -55 57 -72 237 -250 330 -325
268 -217 630 -399 946 -475 43 -10 220 -45 255 -49 185 -25 534 -26 650 -2 11
2 40 7 65 10 235 32 533 131 758 252 325 174 620 431 833 724 155 212 275 451
354 702 19 62 37 122 39 133 2 11 9 38 14 60 6 22 14 60 17 85 4 25 11 67 16
94 22 118 30 412 16 571 -66 728 -452 1383 -1057 1797 -319 218 -690 360
-1055 403 -27 4 -66 8 -85 11 -37 5 -358 13 -362 9z m387 -219 c44 -7 86 -13
143 -22 69 -10 228 -53 333 -90 484 -168 892 -496 1169 -939 124 -199 237
-483 284 -715 15 -77 20 -109 36 -240 9 -73 6 -410 -3 -460 -3 -14 -8 -46 -11
-71 -28 -200 -101 -444 -192 -634 -44 -93 -141 -258 -193 -330 -339 -469 -822
-785 -1376 -900 -237 -49 -605 -56 -805 -15 -25 5 -62 12 -84 15 -21 3 -41 7
-45 10 -4 2 -19 6 -33 9 -110 19 -328 100 -478 175 -303 152 -534 344 -776
644 -31 38 -133 195 -171 262 -116 208 -204 451 -244 675 -25 138 -30 197 -34
370 -5 298 29 510 127 790 72 207 188 420 322 595 160 209 386 415 609 554
215 133 547 260 777 296 25 4 54 9 65 11 11 2 54 7 95 10 41 4 77 8 79 10 6 5
360 -4 406 -10z"/>
<path d="M2532 4688 c-11 -46 -34 -132 -50 -193 -228 -844 -290 -1072 -303
-1127 -6 -27 -13 -48 -15 -48 -1 0 -53 29 -114 65 -61 36 -113 65 -115 65 -3
0 -33 17 -67 38 -35 21 -157 93 -273 159 -115 66 -228 131 -250 144 l-39 24
20 -35 c25 -41 91 -156 127 -220 14 -25 98 -171 186 -324 89 -153 160 -280
159 -281 -3 -1 -166 -46 -783 -212 -132 -35 -283 -76 -335 -90 -52 -14 -99
-26 -105 -28 -5 -1 -30 -7 -55 -14 -49 -14 -52 -15 -122 -33 -27 -6 -48 -14
-48 -18 0 -5 129 -42 223 -65 10 -2 52 -14 95 -25 42 -12 84 -23 92 -25 8 -2
83 -22 165 -44 83 -23 193 -52 245 -66 52 -14 109 -30 127 -36 18 -5 40 -12
50 -14 10 -2 52 -12 93 -23 41 -11 138 -37 215 -58 77 -20 141 -38 143 -39 1
-1 -38 -71 -86 -156 -330 -571 -392 -682 -388 -686 3 -3 468 261 780 443 32
19 59 33 61 32 2 -4 76 -280 81 -302 2 -10 8 -33 13 -50 6 -17 20 -67 31 -111
12 -44 51 -188 86 -320 36 -132 67 -247 69 -255 23 -95 111 -410 115 -410 3 0
27 82 54 183 27 100 71 263 97 362 27 99 66 245 88 325 22 80 65 242 97 360
32 118 58 216 59 217 1 2 175 -96 386 -218 470 -270 471 -271 466 -262 -3 5
-63 109 -134 233 -72 124 -174 302 -228 395 -142 246 -132 218 -82 231 23 7
179 49 347 94 168 45 312 84 320 86 8 2 123 33 255 69 132 35 295 79 363 97
67 18 122 36 122 39 0 4 -10 9 -22 11 -13 3 -68 17 -123 32 -55 15 -140 38
-190 51 -49 13 -175 47 -280 75 -104 29 -197 53 -205 55 -8 2 -141 38 -295 80
-154 43 -292 80 -307 82 -16 3 -28 6 -28 8 0 2 361 631 467 814 l26 44 -34
-20 c-19 -11 -173 -100 -344 -198 -170 -98 -348 -200 -394 -227 -46 -27 -85
-47 -86 -46 -1 2 -62 226 -135 498 -73 272 -147 549 -165 615 -18 66 -45 168
-61 228 -16 59 -32 107 -35 107 -4 0 -16 -37 -27 -82z m203 -1617 c223 -79
364 -277 364 -514 0 -149 -51 -271 -158 -378 -114 -114 -243 -163 -404 -155
-99 5 -146 18 -236 66 -149 80 -262 251 -272 415 -1 22 -7 48 -12 59 -6 13 -6
16 2 12 7 -5 11 6 12 31 4 213 192 429 417 479 79 17 214 10 287 -15z"/>
<path d="M2485 2886 c-71 -18 -112 -42 -166 -97 -159 -163 -103 -439 108 -536
82 -38 194 -39 274 -2 215 100 269 380 104 544 -81 82 -211 119 -320 91z"/>
</g>
</svg>
